<svg xmlns="http://www.w3.org/2000/svg" width="720" height="720" viewBox="0 0 720 720" role="img" aria-labelledby="title desc">
  <title id="title">Made for every input</title><desc id="desc">Blue mobile banner for touch pointer and keyboard support.</desc>
  <defs><linearGradient id="bg" x1="0" y1="1" x2="1" y2="0"><stop stop-color="#1d4ed8"/><stop offset="1" stop-color="#60a5fa"/></linearGradient></defs><rect width="720" height="720" rx="30" fill="url(#bg)"/>
  <g font-family="Inter,system-ui,sans-serif"><text x="52" y="84" fill="#dbeafe" font-size="17" font-weight="700" letter-spacing="3">INPUT-AWARE</text><text x="52" y="157" fill="#fff" font-size="49" font-weight="750" letter-spacing="-2">Touch. Pointer.</text><text x="52" y="213" fill="#fff" font-size="49" font-weight="750" letter-spacing="-2">Keys.</text><text x="54" y="260" fill="#dbeafe" font-size="19">One model across every screen.</text></g>
  <g transform="translate(52 340)" font-family="Inter,system-ui,sans-serif"><g><rect width="188" height="250" rx="22" fill="#fff" fill-opacity=".94"/><circle cx="94" cy="75" r="32" fill="#dbeafe"/><path d="M94 53v44M79 75h30" stroke="#2563eb" stroke-width="7" stroke-linecap="round"/><text x="94" y="167" text-anchor="middle" fill="#172554" font-size="18" font-weight="750">Touch</text><text x="94" y="196" text-anchor="middle" fill="#64748b" font-size="13">swipe naturally</text></g><g transform="translate(212)"><rect width="188" height="250" rx="22" fill="#fff" fill-opacity=".94"/><circle cx="94" cy="75" r="32" fill="#dbeafe"/><path d="m71 75 15-14v10h18V61l15 14-15 14V79H86v10Z" fill="#2563eb"/><text x="94" y="167" text-anchor="middle" fill="#172554" font-size="18" font-weight="750">Keyboard</text><text x="94" y="196" text-anchor="middle" fill="#64748b" font-size="13">arrow navigation</text></g></g>
</svg>
